<svg xmlns="http://www.w3.org/2000/svg" xmlns:xlink="http://www.w3.org/1999/xlink" width="500" zoomAndPan="magnify" viewBox="0 0 375 374.999991" height="500" preserveAspectRatio="xMidYMid meet" version="1.2"><g id="e74cfe6f77"><path style=" stroke:none;fill-rule:nonzero;fill:#8a3aff;fill-opacity:1;" d="M 110.8125 72.480469 L 119 110.457031 C 119 110.457031 119.007812 110.519531 119.019531 110.550781 C 120.027344 115.511719 115.488281 120.050781 110.53125 119.007812 C 110.5 119.007812 110.476562 119 110.445312 118.988281 L 72.460938 110.835938 C 69.539062 110.203125 66.511719 111.097656 64.390625 113.199219 L 18.074219 159.359375 C 13.125 164.277344 15.613281 172.726562 22.421875 174.195312 C 22.421875 174.195312 51.152344 180.382812 82.652344 187.183594 C 83.671875 187.402344 84.722656 187.402344 85.742188 187.183594 L 102.648438 183.546875 L 104.433594 183.160156 L 158.761719 171.472656 C 161.492188 170.875 164.339844 171.632812 166.410156 173.460938 L 175.265625 182.316406 C 178.136719 185.1875 178.136719 189.832031 175.265625 192.6875 L 166.472656 201.484375 C 164.488281 203.46875 161.648438 204.300781 158.90625 203.703125 C 149.859375 201.703125 128.046875 196.976562 104.457031 191.878906 C 103.855469 191.753906 103.246094 191.617188 102.636719 191.492188 C 97.039062 190.28125 91.363281 189.054688 85.742188 187.84375 C 84.722656 187.625 83.671875 187.625 82.652344 187.84375 L 22.433594 200.800781 C 15.613281 202.28125 13.125 210.730469 18.074219 215.660156 L 64.410156 261.820312 C 66.523438 263.929688 69.550781 264.824219 72.480469 264.195312 L 110.457031 256.007812 C 110.457031 256.007812 110.519531 255.996094 110.550781 255.988281 C 115.519531 254.980469 120.050781 259.519531 119.007812 264.476562 C 119.007812 264.5 119 264.53125 118.988281 264.550781 L 110.835938 302.535156 C 110.214844 305.46875 111.097656 308.496094 113.210938 310.617188 L 159.371094 356.933594 C 164.285156 361.882812 172.734375 359.394531 174.207031 352.585938 C 174.207031 352.585938 180.394531 323.855469 187.183594 292.34375 C 187.402344 291.324219 187.402344 290.273438 187.183594 289.253906 L 183.546875 272.359375 L 183.160156 270.5625 L 171.472656 216.238281 C 170.863281 213.410156 171.695312 210.480469 173.671875 208.386719 L 182.328125 199.730469 C 185.195312 196.859375 189.839844 196.859375 192.699219 199.730469 L 201.503906 208.535156 C 203.480469 210.511719 204.320312 213.359375 203.710938 216.089844 C 201.714844 225.136719 196.988281 246.949219 191.890625 270.539062 L 191.5 272.359375 C 190.292969 277.960938 189.0625 283.632812 187.855469 289.253906 C 187.636719 290.273438 187.636719 291.324219 187.855469 292.34375 L 200.8125 352.5625 C 202.304688 359.394531 210.742188 361.875 215.667969 356.933594 L 261.820312 310.597656 C 263.929688 308.484375 264.824219 305.457031 264.195312 302.527344 L 256.007812 264.550781 C 256.007812 264.550781 255.996094 264.488281 255.988281 264.457031 C 254.980469 259.496094 259.527344 254.957031 264.488281 255.996094 C 264.519531 255.996094 264.539062 256.007812 264.574219 256.019531 L 302.546875 264.171875 C 305.480469 264.792969 308.503906 263.910156 310.628906 261.796875 L 356.945312 215.636719 C 361.882812 210.730469 359.402344 202.273438 352.59375 200.800781 C 352.59375 200.800781 323.867188 194.621094 292.355469 187.824219 C 291.335938 187.601562 290.285156 187.601562 289.265625 187.824219 L 272.359375 191.449219 L 270.5625 191.839844 L 216.238281 203.523438 C 213.410156 204.132812 210.480469 203.300781 208.386719 201.328125 L 199.730469 192.667969 C 196.859375 189.800781 196.859375 185.15625 199.730469 182.296875 L 208.523438 173.503906 C 210.511719 171.515625 213.359375 170.675781 216.089844 171.285156 C 225.136719 173.28125 246.949219 178.011719 270.539062 183.105469 C 271.140625 183.230469 271.75 183.367188 272.359375 183.496094 C 277.960938 184.703125 283.644531 185.933594 289.253906 187.140625 C 290.273438 187.363281 291.324219 187.363281 292.34375 187.140625 L 352.5625 174.183594 C 359.382812 172.703125 361.875 164.253906 356.925781 159.328125 L 310.585938 113.167969 C 308.472656 111.054688 305.445312 110.160156 302.527344 110.792969 L 264.539062 118.96875 C 264.539062 118.96875 264.488281 118.976562 264.46875 118.976562 C 259.496094 120.007812 254.957031 115.445312 255.996094 110.488281 C 255.996094 110.457031 256.007812 110.433594 256.019531 110.402344 L 264.171875 72.429688 C 264.804688 69.507812 263.910156 66.480469 261.808594 64.359375 L 215.660156 18.082031 C 210.742188 13.132812 202.292969 15.625 200.820312 22.433594 C 200.820312 22.433594 194.632812 51.152344 187.84375 82.664062 C 187.625 83.683594 187.625 84.734375 187.84375 85.753906 L 191.46875 102.660156 L 191.859375 104.464844 L 203.542969 158.78125 C 204.144531 161.511719 203.398438 164.351562 201.546875 166.429688 L 192.6875 175.289062 C 189.820312 178.15625 185.175781 178.15625 182.316406 175.289062 L 173.523438 166.492188 C 171.539062 164.507812 170.707031 161.671875 171.304688 158.929688 C 173.300781 149.882812 178.03125 128.066406 183.128906 104.476562 C 183.253906 103.878906 183.390625 103.269531 183.515625 102.660156 C 184.734375 97.058594 185.953125 91.375 187.171875 85.753906 C 187.394531 84.734375 187.394531 83.683594 187.171875 82.664062 L 174.214844 22.445312 C 172.734375 15.625 164.277344 13.144531 159.359375 18.082031 L 113.199219 64.421875 C 111.085938 66.535156 110.195312 69.558594 110.824219 72.492188 Z M 110.8125 72.480469 "/></g></svg>