<svg xmlns="http://www.w3.org/2000/svg" xmlns:xlink="http://www.w3.org/1999/xlink" width="300" zoomAndPan="magnify" viewBox="0 0 224.87999 74.999997" height="100" preserveAspectRatio="xMidYMid meet" version="1.2"><defs><clipPath id="7c4f149f25"><path d="M 1.28125 5.082031 L 65.746094 5.082031 L 65.746094 69.550781 L 1.28125 69.550781 Z M 1.28125 5.082031 "/></clipPath></defs><g id="781d3643f8"><g clip-rule="nonzero" clip-path="url(#7c4f149f25)"><path style=" stroke:none;fill-rule:nonzero;fill:#8a3aff;fill-opacity:1;" d="M 19.332031 16.046875 L 20.84375 23.066406 C 20.84375 23.066406 20.847656 23.078125 20.847656 23.085938 C 21.035156 24.003906 20.195312 24.839844 19.28125 24.648438 C 19.273438 24.648438 19.269531 24.648438 19.265625 24.644531 L 12.242188 23.136719 C 11.703125 23.019531 11.144531 23.1875 10.75 23.574219 L 2.191406 32.105469 C 1.273438 33.015625 1.734375 34.578125 2.992188 34.851562 C 2.992188 34.851562 8.304688 35.992188 14.128906 37.25 C 14.316406 37.292969 14.507812 37.292969 14.699219 37.25 L 17.824219 36.578125 L 18.152344 36.507812 L 28.195312 34.347656 C 28.699219 34.234375 29.226562 34.375 29.609375 34.714844 L 31.246094 36.351562 C 31.777344 36.882812 31.777344 37.738281 31.246094 38.269531 L 29.621094 39.894531 C 29.253906 40.261719 28.730469 40.414062 28.222656 40.304688 C 26.550781 39.933594 22.519531 39.0625 18.15625 38.117188 C 18.046875 38.09375 17.933594 38.070312 17.820312 38.046875 C 16.785156 37.824219 15.738281 37.597656 14.699219 37.371094 C 14.507812 37.332031 14.316406 37.332031 14.128906 37.371094 L 2.996094 39.769531 C 1.734375 40.042969 1.273438 41.601562 2.191406 42.515625 L 10.753906 51.046875 C 11.144531 51.4375 11.703125 51.601562 12.246094 51.484375 L 19.265625 49.972656 C 19.265625 49.972656 19.277344 49.972656 19.285156 49.96875 C 20.203125 49.78125 21.039062 50.621094 20.847656 51.539062 C 20.847656 51.542969 20.84375 51.546875 20.84375 51.550781 L 19.335938 58.574219 C 19.222656 59.117188 19.386719 59.675781 19.773438 60.066406 L 28.308594 68.628906 C 29.21875 69.542969 30.777344 69.082031 31.050781 67.824219 C 31.050781 67.824219 32.195312 62.515625 33.449219 56.6875 C 33.488281 56.5 33.488281 56.308594 33.449219 56.117188 L 32.777344 52.996094 L 32.707031 52.664062 L 30.546875 42.621094 C 30.433594 42.097656 30.585938 41.558594 30.953125 41.171875 L 32.550781 39.570312 C 33.082031 39.039062 33.941406 39.039062 34.46875 39.570312 L 36.097656 41.199219 C 36.460938 41.5625 36.617188 42.089844 36.503906 42.59375 C 36.136719 44.265625 35.261719 48.296875 34.320312 52.660156 L 34.246094 52.996094 C 34.023438 54.03125 33.796875 55.078125 33.574219 56.117188 C 33.53125 56.308594 33.53125 56.5 33.574219 56.6875 L 35.96875 67.820312 C 36.246094 69.082031 37.804688 69.542969 38.714844 68.628906 L 47.246094 60.0625 C 47.636719 59.671875 47.800781 59.113281 47.683594 58.570312 L 46.171875 51.550781 C 46.171875 51.550781 46.167969 51.539062 46.167969 51.535156 C 45.980469 50.617188 46.820312 49.777344 47.738281 49.972656 C 47.746094 49.972656 47.75 49.972656 47.753906 49.976562 L 54.773438 51.480469 C 55.316406 51.597656 55.875 51.433594 56.265625 51.042969 L 64.828125 42.511719 C 65.742188 41.601562 65.285156 40.039062 64.023438 39.769531 C 64.023438 39.769531 58.714844 38.625 52.890625 37.367188 C 52.703125 37.328125 52.507812 37.328125 52.320312 37.367188 L 49.195312 38.039062 L 48.863281 38.109375 L 38.820312 40.269531 C 38.296875 40.382812 37.753906 40.230469 37.367188 39.863281 L 35.769531 38.265625 C 35.238281 37.734375 35.238281 36.875 35.769531 36.347656 L 37.394531 34.722656 C 37.761719 34.355469 38.289062 34.199219 38.792969 34.3125 C 40.464844 34.679688 44.496094 35.554688 48.859375 36.496094 C 48.96875 36.519531 49.082031 36.546875 49.195312 36.570312 C 50.230469 36.792969 51.28125 37.019531 52.316406 37.242188 C 52.503906 37.285156 52.699219 37.285156 52.886719 37.242188 L 64.019531 34.847656 C 65.28125 34.574219 65.738281 33.011719 64.824219 32.101562 L 56.261719 23.570312 C 55.871094 23.179688 55.308594 23.011719 54.769531 23.128906 L 47.75 24.640625 C 47.75 24.640625 47.738281 24.644531 47.734375 24.644531 C 46.816406 24.832031 45.976562 23.992188 46.167969 23.074219 C 46.167969 23.066406 46.171875 23.0625 46.171875 23.058594 L 47.679688 16.039062 C 47.796875 15.5 47.632812 14.9375 47.242188 14.546875 L 38.710938 5.992188 C 37.804688 5.078125 36.242188 5.539062 35.96875 6.796875 C 35.96875 6.796875 34.828125 12.105469 33.570312 17.929688 C 33.53125 18.117188 33.53125 18.3125 33.570312 18.5 L 34.242188 21.625 L 34.3125 21.960938 L 36.472656 32 C 36.585938 32.503906 36.445312 33.03125 36.105469 33.414062 L 34.46875 35.050781 C 33.9375 35.582031 33.078125 35.582031 32.550781 35.050781 L 30.925781 33.425781 C 30.558594 33.058594 30.402344 32.535156 30.515625 32.027344 C 30.882812 30.355469 31.757812 26.324219 32.699219 21.960938 C 32.722656 21.851562 32.746094 21.738281 32.769531 21.625 C 32.996094 20.589844 33.222656 19.539062 33.445312 18.5 C 33.488281 18.3125 33.488281 18.117188 33.445312 17.929688 L 31.050781 6.800781 C 30.777344 5.539062 29.214844 5.078125 28.304688 5.992188 L 19.773438 14.558594 C 19.382812 14.949219 19.21875 15.507812 19.335938 16.050781 Z M 19.332031 16.046875 "/></g><g style="fill:#8a3aff;fill-opacity:1;"><g transform="translate(67.882393, 45.870497)"><path style="stroke:none" d="M 5.78125 0 L 1.921875 0 L 1.921875 -18.75 L 5.78125 -18.75 Z M 5.78125 0 "/></g></g><g style="fill:#8a3aff;fill-opacity:1;"><g transform="translate(75.569886, 45.870497)"><path style="stroke:none" d="M 4.859375 -13.9375 L 4.96875 -12.328125 C 5.96875 -13.566406 7.300781 -14.1875 8.96875 -14.1875 C 10.445312 -14.1875 11.546875 -13.753906 12.265625 -12.890625 C 12.992188 -12.023438 13.363281 -10.726562 13.375 -9 L 13.375 0 L 9.65625 0 L 9.65625 -8.90625 C 9.65625 -9.695312 9.484375 -10.269531 9.140625 -10.625 C 8.796875 -10.988281 8.226562 -11.171875 7.4375 -11.171875 C 6.382812 -11.171875 5.597656 -10.722656 5.078125 -9.828125 L 5.078125 0 L 1.359375 0 L 1.359375 -13.9375 Z M 4.859375 -13.9375 "/></g></g><g style="fill:#8a3aff;fill-opacity:1;"><g transform="translate(90.339659, 45.870497)"><path style="stroke:none" d="M 2.453125 0 L 2.453125 -11.203125 L 0.375 -11.203125 L 0.375 -13.9375 L 2.453125 -13.9375 L 2.453125 -15.125 C 2.453125 -16.6875 2.898438 -17.894531 3.796875 -18.75 C 4.691406 -19.613281 5.945312 -20.046875 7.5625 -20.046875 C 8.070312 -20.046875 8.703125 -19.960938 9.453125 -19.796875 L 9.421875 -16.90625 C 9.109375 -16.988281 8.726562 -17.03125 8.28125 -17.03125 C 6.882812 -17.03125 6.1875 -16.375 6.1875 -15.0625 L 6.1875 -13.9375 L 8.953125 -13.9375 L 8.953125 -11.203125 L 6.1875 -11.203125 L 6.1875 0 Z M 2.453125 0 "/></g></g><g style="fill:#8a3aff;fill-opacity:1;"><g transform="translate(99.791284, 45.870497)"><path style="stroke:none" d="M 5.359375 0 L 1.625 0 L 1.625 -13.9375 L 5.359375 -13.9375 Z M 1.40625 -17.546875 C 1.40625 -18.097656 1.59375 -18.550781 1.96875 -18.90625 C 2.34375 -19.269531 2.847656 -19.453125 3.484375 -19.453125 C 4.117188 -19.453125 4.625 -19.269531 5 -18.90625 C 5.382812 -18.550781 5.578125 -18.097656 5.578125 -17.546875 C 5.578125 -16.972656 5.382812 -16.503906 5 -16.140625 C 4.625 -15.785156 4.117188 -15.609375 3.484375 -15.609375 C 2.859375 -15.609375 2.351562 -15.785156 1.96875 -16.140625 C 1.59375 -16.503906 1.40625 -16.972656 1.40625 -17.546875 Z M 1.40625 -17.546875 "/></g></g><g style="fill:#8a3aff;fill-opacity:1;"><g transform="translate(106.783425, 45.870497)"><path style="stroke:none" d="M 4.859375 -13.9375 L 4.96875 -12.328125 C 5.96875 -13.566406 7.300781 -14.1875 8.96875 -14.1875 C 10.445312 -14.1875 11.546875 -13.753906 12.265625 -12.890625 C 12.992188 -12.023438 13.363281 -10.726562 13.375 -9 L 13.375 0 L 9.65625 0 L 9.65625 -8.90625 C 9.65625 -9.695312 9.484375 -10.269531 9.140625 -10.625 C 8.796875 -10.988281 8.226562 -11.171875 7.4375 -11.171875 C 6.382812 -11.171875 5.597656 -10.722656 5.078125 -9.828125 L 5.078125 0 L 1.359375 0 L 1.359375 -13.9375 Z M 4.859375 -13.9375 "/></g></g><g style="fill:#8a3aff;fill-opacity:1;"><g transform="translate(121.553198, 45.870497)"><path style="stroke:none" d="M 5.359375 0 L 1.625 0 L 1.625 -13.9375 L 5.359375 -13.9375 Z M 1.40625 -17.546875 C 1.40625 -18.097656 1.59375 -18.550781 1.96875 -18.90625 C 2.34375 -19.269531 2.847656 -19.453125 3.484375 -19.453125 C 4.117188 -19.453125 4.625 -19.269531 5 -18.90625 C 5.382812 -18.550781 5.578125 -18.097656 5.578125 -17.546875 C 5.578125 -16.972656 5.382812 -16.503906 5 -16.140625 C 4.625 -15.785156 4.117188 -15.609375 3.484375 -15.609375 C 2.859375 -15.609375 2.351562 -15.785156 1.96875 -16.140625 C 1.59375 -16.503906 1.40625 -16.972656 1.40625 -17.546875 Z M 1.40625 -17.546875 "/></g></g><g style="fill:#8a3aff;fill-opacity:1;"><g transform="translate(128.54534, 45.870497)"><path style="stroke:none" d="M 5.890625 -17.359375 L 5.890625 -13.9375 L 8.265625 -13.9375 L 8.265625 -11.203125 L 5.890625 -11.203125 L 5.890625 -4.25 C 5.890625 -3.738281 5.988281 -3.367188 6.1875 -3.140625 C 6.382812 -2.921875 6.757812 -2.8125 7.3125 -2.8125 C 7.726562 -2.8125 8.09375 -2.835938 8.40625 -2.890625 L 8.40625 -0.078125 C 7.675781 0.140625 6.925781 0.25 6.15625 0.25 C 3.539062 0.25 2.207031 -1.066406 2.15625 -3.703125 L 2.15625 -11.203125 L 0.125 -11.203125 L 0.125 -13.9375 L 2.15625 -13.9375 L 2.15625 -17.359375 Z M 5.890625 -17.359375 "/></g></g><g style="fill:#8a3aff;fill-opacity:1;"><g transform="translate(137.456136, 45.870497)"><path style="stroke:none" d="M 6.625 -5.265625 L 9.203125 -13.9375 L 13.203125 -13.9375 L 7.59375 2.15625 L 7.296875 2.890625 C 6.460938 4.710938 5.085938 5.625 3.171875 5.625 C 2.628906 5.625 2.078125 5.546875 1.515625 5.390625 L 1.515625 2.5625 L 2.09375 2.578125 C 2.789062 2.578125 3.3125 2.46875 3.65625 2.25 C 4.007812 2.039062 4.285156 1.6875 4.484375 1.1875 L 4.921875 0.03125 L 0.03125 -13.9375 L 4.046875 -13.9375 Z M 6.625 -5.265625 "/></g></g><g style="fill:#8a3aff;fill-opacity:1;"><g transform="translate(150.693561, 45.870497)"><path style="stroke:none" d=""/></g></g><g style="fill:#8a3aff;fill-opacity:1;"><g transform="translate(157.260766, 45.870497)"><path style="stroke:none" d="M 11.390625 -4.921875 C 11.390625 -5.648438 11.132812 -6.207031 10.625 -6.59375 C 10.113281 -6.988281 9.1875 -7.398438 7.84375 -7.828125 C 6.5 -8.265625 5.4375 -8.695312 4.65625 -9.125 C 2.53125 -10.269531 1.46875 -11.816406 1.46875 -13.765625 C 1.46875 -14.773438 1.753906 -15.675781 2.328125 -16.46875 C 2.898438 -17.269531 3.71875 -17.894531 4.78125 -18.34375 C 5.851562 -18.789062 7.054688 -19.015625 8.390625 -19.015625 C 9.722656 -19.015625 10.910156 -18.769531 11.953125 -18.28125 C 13.003906 -17.789062 13.820312 -17.101562 14.40625 -16.21875 C 14.988281 -15.34375 15.28125 -14.34375 15.28125 -13.21875 L 11.40625 -13.21875 C 11.40625 -14.070312 11.132812 -14.738281 10.59375 -15.21875 C 10.050781 -15.695312 9.289062 -15.9375 8.3125 -15.9375 C 7.375 -15.9375 6.640625 -15.734375 6.109375 -15.328125 C 5.585938 -14.929688 5.328125 -14.40625 5.328125 -13.75 C 5.328125 -13.144531 5.632812 -12.632812 6.25 -12.21875 C 6.863281 -11.8125 7.769531 -11.425781 8.96875 -11.0625 C 11.164062 -10.40625 12.765625 -9.585938 13.765625 -8.609375 C 14.773438 -7.628906 15.28125 -6.410156 15.28125 -4.953125 C 15.28125 -3.328125 14.664062 -2.050781 13.4375 -1.125 C 12.207031 -0.207031 10.550781 0.25 8.46875 0.25 C 7.03125 0.25 5.71875 -0.0078125 4.53125 -0.53125 C 3.34375 -1.0625 2.4375 -1.785156 1.8125 -2.703125 C 1.195312 -3.617188 0.890625 -4.679688 0.890625 -5.890625 L 4.765625 -5.890625 C 4.765625 -3.828125 6 -2.796875 8.46875 -2.796875 C 9.394531 -2.796875 10.113281 -2.984375 10.625 -3.359375 C 11.132812 -3.734375 11.390625 -4.253906 11.390625 -4.921875 Z M 11.390625 -4.921875 "/></g></g><g style="fill:#8a3aff;fill-opacity:1;"><g transform="translate(173.472748, 45.870497)"><path style="stroke:none" d="M 7.21875 -2.75 C 7.90625 -2.75 8.460938 -2.9375 8.890625 -3.3125 C 9.328125 -3.6875 9.550781 -4.1875 9.5625 -4.8125 L 13.0625 -4.8125 C 13.050781 -3.875 12.789062 -3.007812 12.28125 -2.21875 C 11.78125 -1.4375 11.085938 -0.828125 10.203125 -0.390625 C 9.328125 0.0351562 8.359375 0.25 7.296875 0.25 C 5.296875 0.25 3.71875 -0.378906 2.5625 -1.640625 C 1.414062 -2.910156 0.84375 -4.660156 0.84375 -6.890625 L 0.84375 -7.140625 C 0.84375 -9.285156 1.414062 -10.992188 2.5625 -12.265625 C 3.707031 -13.546875 5.273438 -14.1875 7.265625 -14.1875 C 9.003906 -14.1875 10.398438 -13.691406 11.453125 -12.703125 C 12.503906 -11.710938 13.039062 -10.394531 13.0625 -8.75 L 9.5625 -8.75 C 9.550781 -9.46875 9.328125 -10.050781 8.890625 -10.5 C 8.460938 -10.945312 7.898438 -11.171875 7.203125 -11.171875 C 6.328125 -11.171875 5.671875 -10.851562 5.234375 -10.21875 C 4.796875 -9.59375 4.578125 -8.570312 4.578125 -7.15625 L 4.578125 -6.78125 C 4.578125 -5.34375 4.796875 -4.3125 5.234375 -3.6875 C 5.671875 -3.0625 6.332031 -2.75 7.21875 -2.75 Z M 7.21875 -2.75 "/></g></g><g style="fill:#8a3aff;fill-opacity:1;"><g transform="translate(187.225248, 45.870497)"><path style="stroke:none" d="M 9.5 0 C 9.332031 -0.332031 9.207031 -0.75 9.125 -1.25 C 8.226562 -0.25 7.054688 0.25 5.609375 0.25 C 4.242188 0.25 3.113281 -0.140625 2.21875 -0.921875 C 1.320312 -1.710938 0.875 -2.710938 0.875 -3.921875 C 0.875 -5.390625 1.421875 -6.519531 2.515625 -7.3125 C 3.609375 -8.101562 5.191406 -8.503906 7.265625 -8.515625 L 8.96875 -8.515625 L 8.96875 -9.3125 C 8.96875 -9.957031 8.800781 -10.472656 8.46875 -10.859375 C 8.144531 -11.242188 7.628906 -11.4375 6.921875 -11.4375 C 6.285156 -11.4375 5.789062 -11.285156 5.4375 -10.984375 C 5.082031 -10.679688 4.90625 -10.269531 4.90625 -9.75 L 1.1875 -9.75 C 1.1875 -10.550781 1.429688 -11.296875 1.921875 -11.984375 C 2.421875 -12.671875 3.125 -13.207031 4.03125 -13.59375 C 4.945312 -13.988281 5.972656 -14.1875 7.109375 -14.1875 C 8.828125 -14.1875 10.191406 -13.753906 11.203125 -12.890625 C 12.210938 -12.035156 12.71875 -10.828125 12.71875 -9.265625 L 12.71875 -3.21875 C 12.71875 -1.894531 12.898438 -0.894531 13.265625 -0.21875 L 13.265625 0 Z M 6.421875 -2.59375 C 6.972656 -2.59375 7.476562 -2.710938 7.9375 -2.953125 C 8.40625 -3.203125 8.75 -3.53125 8.96875 -3.9375 L 8.96875 -6.34375 L 7.578125 -6.34375 C 5.722656 -6.34375 4.734375 -5.695312 4.609375 -4.40625 L 4.59375 -4.1875 C 4.59375 -3.71875 4.753906 -3.332031 5.078125 -3.03125 C 5.410156 -2.738281 5.859375 -2.59375 6.421875 -2.59375 Z M 6.421875 -2.59375 "/></g></g><g style="fill:#8a3aff;fill-opacity:1;"><g transform="translate(201.364054, 45.870497)"><path style="stroke:none" d="M 5.359375 0 L 1.625 0 L 1.625 -19.78125 L 5.359375 -19.78125 Z M 5.359375 0 "/></g></g><g style="fill:#8a3aff;fill-opacity:1;"><g transform="translate(208.356196, 45.870497)"><path style="stroke:none" d="M 7.84375 0.25 C 5.800781 0.25 4.132812 -0.375 2.84375 -1.625 C 1.5625 -2.875 0.921875 -4.539062 0.921875 -6.625 L 0.921875 -7 C 0.921875 -8.394531 1.191406 -9.644531 1.734375 -10.75 C 2.273438 -11.851562 3.039062 -12.703125 4.03125 -13.296875 C 5.03125 -13.890625 6.164062 -14.1875 7.4375 -14.1875 C 9.34375 -14.1875 10.84375 -13.585938 11.9375 -12.390625 C 13.03125 -11.191406 13.578125 -9.488281 13.578125 -7.28125 L 13.578125 -5.75 L 4.703125 -5.75 C 4.816406 -4.84375 5.175781 -4.113281 5.78125 -3.5625 C 6.394531 -3.019531 7.164062 -2.75 8.09375 -2.75 C 9.519531 -2.75 10.640625 -3.265625 11.453125 -4.296875 L 13.28125 -2.25 C 12.71875 -1.457031 11.957031 -0.84375 11 -0.40625 C 10.050781 0.03125 9 0.25 7.84375 0.25 Z M 7.421875 -11.171875 C 6.679688 -11.171875 6.082031 -10.921875 5.625 -10.421875 C 5.164062 -9.929688 4.867188 -9.222656 4.734375 -8.296875 L 9.921875 -8.296875 L 9.921875 -8.59375 C 9.898438 -9.414062 9.675781 -10.050781 9.25 -10.5 C 8.820312 -10.945312 8.210938 -11.171875 7.421875 -11.171875 Z M 7.421875 -11.171875 "/></g></g></g></svg>